<svg xmlns="http://www.w3.org/2000/svg" viewBox="0 0 53 53"><path d="M30 50a1 1 0 1 1 0-2c.637 0 1.278-.029 1.906-.086.542-.059 1.036.356 1.086.906a1 1 0 0 1-.906 1.086c-.688.063-1.389.094-2.086.094zm5.924-.808a.999.999 0 0 1-.268-1.962c.61-.17 1.22-.371 1.811-.597a1.001 1.001 0 0 1 .713 1.869c-.648.247-1.317.468-1.986.653a.97.97 0 0 1-.27.037zm5.488-2.379a.999.999 0 0 1-.52-1.854c.543-.33 1.075-.688 1.583-1.064a1 1 0 0 1 1.191 1.607c-.557.412-1.141.805-1.735 1.166a1.002 1.002 0 0 1-.519.145zm4.642-3.77a1 1 0 0 1-.73-1.684c.433-.462.85-.949 1.241-1.45a.999.999 0 1 1 1.576 1.23 22.932 22.932 0 0 1-1.358 1.587.994.994 0 0 1-.729.317zm3.461-4.877a1.002 1.002 0 0 1-.886-1.463c.293-.56.563-1.142.805-1.729a.999.999 0 1 1 1.85.76 22.963 22.963 0 0 1-.881 1.895 1.001 1.001 0 0 1-.888.537zm2.017-5.628a.999.999 0 0 1-.979-1.205c.129-.618.232-1.252.307-1.884a1 1 0 1 1 1.986.232 23.306 23.306 0 0 1-.336 2.062 1 1 0 0 1-.978.795zM52 27a1 1 0 0 1-1-1c0-11.579-9.421-21-21-21S9 14.421 9 26a1 1 0 1 1-2 0C7 13.317 17.317 3 30 3s23 10.317 23 23a1 1 0 0 1-1 1z"/><path d="M8 27a.997.997 0 0 1-.707-.293l-7-7a.999.999 0 1 1 1.414-1.414l7 7A.999.999 0 0 1 8 27z"/><path d="M8 27a.999.999 0 0 1-.707-1.707l7-7a.999.999 0 1 1 1.414 1.414l-7 7A.997.997 0 0 1 8 27z"/></svg>
