<svg version="1" xmlns="http://www.w3.org/2000/svg" width="682.667" height="682.667" viewBox="0 0 512.000000 512.000000"><path d="M259 23.7c-15.9 1.8-32.6 13.7-40 28.3-14.5 28.7 0 62.5 31.3 73.3 1.5.6 1.7 2.7 1.7 24.2 0 18-.3 23.6-1.2 23.9-.7.2-5.5 1.4-10.6 2.6-30 7-56.6 27.8-70.7 55.3-2.2 4.2-4.5 7.7-5.2 7.7-1 0-39.4-10.2-54.8-14.5l-5.1-1.4-1.1-7.7c-3.6-24.8-26-44.3-51-44.4-23.5-.1-45.4 17.2-50.8 40.1-7.7 32.7 17.4 63.9 51.4 63.9 15.5 0 32.5-9.2 42.7-23.1l1.9-2.7 30.2 8.2 30.2 8.1v14c0 16 2 27.1 7 40 2.7 7 9.2 19 13.6 25 1.4 2 .3 3.2-20.9 24.4l-22.4 22.3-6.8-2.7c-8.1-3.3-21.8-4.4-30.4-2.6-20 4.3-36.6 21.8-40 42.3-5.8 33.9 24 64.6 57.9 59.8 35.1-5 54.7-40.8 40.2-73.6l-1.9-4.1 22.3-22.3 22.3-22.3 8.8 5.6c36.5 22.9 82.5 22.4 117.8-1.5l5.9-4 22.3 22.3c15.6 15.6 22.2 22.9 21.8 23.9-4.2 9.9-5.6 15.8-5.5 24.4.1 29.7 22.7 52.2 52.1 51.9 19.9-.3 37.2-11.1 45.9-28.7 3.9-7.9 5-13.3 5.1-23.2 0-23.4-15.8-43.9-38.5-49.9-9.2-2.3-20.6-1.9-29 1.1-3.8 1.3-7.8 2.7-8.8 3.1-1.5.4-6.8-4.3-23.8-21.3-12-12-21.9-22.2-21.9-22.7 0-.4 1.9-3.5 4.1-6.9 5.9-8.7 11.6-21.4 14.6-32.6 2.4-8.7 2.7-11.5 2.7-26.7 0-15.1-.3-18-2.6-26.5-1.4-5.2-2.8-10.1-2.9-10.9-.3-.8 9.2-6.5 27.4-16.3l27.7-14.9 4.6 4c8.9 7.8 20.8 12.1 33.4 12.1 14.3 0 26-4.8 36.1-14.9 10.1-10 15.8-23.4 15.9-36.8 0-18.6-11.7-37.9-28-46.1-6.6-3.3-17.7-6.2-24-6.2-1.9 0-6.6.7-10.5 1.5-25.6 5.4-42.4 27.6-41.3 54.5l.3 8.5-27.5 14.7-27.5 14.8-4.4-5.3c-10.3-12-22.4-21.7-35.4-28.3-8.4-4.3-22.5-9.1-29.4-10l-5.3-.7v-24.3c0-20 .2-24.4 1.4-24.4 3.5 0 16-7.5 21.4-12.9 23.3-23.3 19.4-62.1-8.1-80.1-9.6-6.3-23.6-9.6-34.7-8.3zm17.7 29.9c14.4 6.8 17.8 25.7 6.9 38.1-5.2 5.9-10.4 8.2-18.2 8.3-24.7.1-34.2-31.8-13.6-45.5 7.4-4.9 15.8-5.2 24.9-.9zM470.9 154c10.9 5.6 16.4 18.5 12.7 29.7-4.7 14-20.4 21.2-33.6 15.2-21.8-9.9-18.9-41 4.5-47 4.3-1.1 12.2-.1 16.4 2.1zM60.5 199.7c10.4 3.5 17.4 14.7 16.2 26-2.1 20.7-27.5 29.6-42.3 14.7-4.3-4.2-7.4-11.6-7.4-17.4 0-5.9 3-12.9 7.6-17.4 7.1-7.1 16.3-9.2 25.9-5.9zm221.3 1.9c26.1 5.3 49.4 25.2 58.8 50 11 29.2 4.7 61.2-16.4 83.6-17.3 18.3-37.8 26.7-62.6 25.5-13.5-.6-20.3-2.3-32.1-8.1-14.4-7.1-25-16.9-33.4-30.8-7.8-13.1-11.1-25.1-11.1-41.3 0-20 6-36.6 18.7-52.2 10.4-12.8 29.3-23.9 46.4-27.2 7.3-1.5 23.5-1.2 31.7.5zM117.2 413.2c5.6 1.7 12.1 7.8 14.8 13.9 6.9 16.1-5.3 34.3-23 34.2-16.6 0-28.3-15.6-23.6-31.4 3.9-13.6 17.8-20.9 31.8-16.7zm314.3.7c8.9 4 14.4 12.6 14.5 22.4 0 9.9-4.4 17.4-13 22.1-6.1 3.3-15 3.9-21.1 1.3-19.2-8-20.3-35.8-1.7-45.1 6.4-3.2 15.2-3.5 21.3-.7z"/></svg>